# xmcd
#
# Track frame offsets:
#	150
#	17416
#	31635
#	47553
#	68935
#	85794
#	104537
#	125182
#	142870
#	161136
#	180058
#	199124
#	217519
#	234834
#	252384
#
# Disc length: 3675 seconds
#
# Revision: 0
# Processed by: cddbd v1.5.2PL0 Copyright (c) Steve Scherf et al.
# Submitted via: audiograbber 1.83.01
#
DISCID=b70e590f
DTITLE=Sound Choice - Country Hits - Vol. 166 SC8847
DYEAR=1900
DGENRE=Karaoke
TTITLE0=Johnny Cash and Rosanne Cash - September When It Comes
TTITLE1=Joe Nichols - Coll To Be A Fool
TTITLE2=Hank Williams Jr. - I'm One Of You
TTITLE3=Sara Evans - Perfect
TTITLE4=Jeff Bates - Rainbow Man
TTITLE5=Toby Keith - I Love This Bar
TTITLE6=Alan Jackson - Remember When
TTITLE7=Brooks and Dunn - You Can't Take The Honky Tonk Out Of The Girl
TTITLE8=Craig Morgan - Every Friday Afternoon
TTITLE9=Wynonna - Heaven Help Me
TTITLE10=Ryan Tyler - Run Run Run
TTITLE11=Shelby Lynn - Telephone
TTITLE12=Kellie Coffey - Texas Plates
TTITLE13=Brad Paisley - Little Moments
TTITLE14=Reba McEntire - I'm Gonna Take That Mountain
EXTD=
EXTT0=
EXTT1=
EXTT2=
EXTT3=
EXTT4=
EXTT5=
EXTT6=
EXTT7=
EXTT8=
EXTT9=
EXTT10=
EXTT11=
EXTT12=
EXTT13=
EXTT14=
PLAYORDER=
